<?xml version="1.0" encoding="utf-8"?>
<!-- Generator: Adobe Illustrator 18.0.0, SVG Export Plug-In . SVG Version: 6.00 Build 0)  -->
<!DOCTYPE svg PUBLIC "-//W3C//DTD SVG 1.1 Tiny//EN" "http://www.w3.org/Graphics/SVG/1.1/DTD/svg11-tiny.dtd">
<svg version="1.1" baseProfile="tiny" id="Capa_1" xmlns="http://www.w3.org/2000/svg" xmlns:xlink="http://www.w3.org/1999/xlink"
	 x="0px" y="0px" viewBox="0 0 595.3 841.9" xml:space="preserve">
<g>
	<path fill="none" stroke="#000000" d="M258.7,540.1l40.7-11l33.7,8.4l-36.4-52.1L258.7,540.1z M311,522.3l-11.7-2.9l-18.2,4.9
		l15.6-22.5L311,522.3z"/>
	<path fill="none" stroke="#000000" d="M425.5,237.8c-28.8-6.6-65.9,47.7-82.9,121.3c-17,73.7-7.5,138.8,21.3,145.4
		c28.8,6.7,65.9-47.7,83-121.3C463.8,309.6,454.3,244.5,425.5,237.8z M415.5,377.9c-14.9,64.6-41.1,113.7-58.4,109.7
		c-17.3-4-19.3-59.6-4.4-124.2c14.9-64.6,41.1-113.7,58.4-109.7C428.5,257.7,430.5,313.3,415.5,377.9z"/>
	<path fill="none" stroke="#000000" d="M272.6,408c-4.8-44.9-26.7-77.1-48.9-71.8c-22.2,5.3-36.3,46-31.5,90.9
		c4.8,44.9,26.7,77.1,48.9,71.8C263.3,493.7,277.4,453,272.6,408z M247.8,486c-13.4,3.2-27.6-26.2-31.9-65.6
		c-4.2-39.4,3.2-73.9,16.6-77.1c13.4-3.2,27.6,26.2,31.9,65.6C268.6,448.3,261.1,482.8,247.8,486z"/>
	<path fill="none" stroke="#000000" d="M545.7,271.8c-23.8-117.1-127.6-202-246.8-202c-16.8,0-33.7,1.7-50.3,5.1
		c-136.2,27.6-224.5,160.9-197,297.1c13.6,66.8,53.9,125.2,111.3,162.2l-31.4,86.3l157.6-15.3l156.4,15.2l-19.5-81
		c42.7-25.1,77.8-62.9,99.5-107.7C549.8,381.7,556.8,326.4,545.7,271.8z M449.9,506.9c-12.1,11-25.4,20.7-39.5,28.8l2.6,4.8
		l15.7,65.2l-21.3-2.1l-9.3-28.5l-12.3,4l7.5,23.1l-45.2-4.4l-7.5-25.7l-12.4,3.6l6.1,20.8l-44.7-4.3l-0.6-0.1l-3,0.3v-26.3h-12.9
		v27.6l-43.7,4.2l5.3-21.7l-12.5-3.1l-6.4,26.1l-30.1,2.9l10.2-23.9l-11.9-5.1l-13,30.4l-20.5,2l23.6-64.7l5.5-9.1
		c-16-10-37.8-26-57.8-48.4c-3-10.5-0.5-24,6.7-33.9c9.2-12.5,30.2-18.4,41.1-11.4c-4.8-3-9.8-5.3-14.8-6.4
		c-18.1-4.5-26.3,2.2-26.3,2.2l1,2.6c-2,1.4-4,3.1-5.9,5.1c-4.9,5.1-8.4,11-10.4,17c0.1-11.1,3.8-23,10.7-32.4
		c12.4-16.9,40.6-24.7,55.3-15.4c-6.4-4.1-13.1-7.1-19.9-8.7c-24.3-6-35.5,2.9-35.5,2.9l1.4,3.5c-2.7,1.9-5.4,4.2-8,6.9
		c-8.7,9.1-14.1,20-16.1,31c-1.7-16.7,3-35.6,13.6-50.1c16.2-22.1,53.2-32.4,72.4-20.1c-8.4-5.4-17.2-9.3-26.1-11.3
		c-31.8-7.9-46.4,3.8-46.4,3.8l1.8,4.6c-3.6,2.5-7.1,5.5-10.5,9c-9.9,10.4-16.7,21.6-20.2,32.9c-2.6-22.5,7.6-49.5,26.5-66.7
		c23.1-21.2,67-24.4,85.8-6.3c-8.2-7.9-17.2-14.3-26.7-18.6c-33.9-16-53-6.1-53-6.1l1.1,5.5c-4.6,2-9.2,4.5-13.8,7.8
		c-17.3,12.1-29.2,28.7-34.8,46.2c1.9-43,48.9-84,99.7-90.6c47-6.1,104.2,27.9,111.7,66.7c-3.3-16.9-8.9-32.6-17-46.2
		c-28.1-49.3-60.2-53.6-60.2-53.6l-3.5,7.8c-7.4-1.5-15.3-2.4-23.8-2.4c-44.4,0-83.3,19.6-105.7,49.5c6-31.3,19.4-61.7,39.6-89.5
		c35.9-49.3,90.3-84.4,149.3-96.3c15.3-3.1,30.8-4.7,46.1-4.7c106.3,0,195.4,73,216.6,177.4C539,370.1,510.7,451.3,449.9,506.9z"/>
</g>
</svg>
